<?xml version="1.0" standalone="no"?>
<!DOCTYPE svg PUBLIC "-//W3C//DTD SVG 20010904//EN"
 "http://www.w3.org/TR/2001/REC-SVG-20010904/DTD/svg10.dtd">
<svg version="1.0" xmlns="http://www.w3.org/2000/svg"
 width="1280.000000pt" height="1242.000000pt" viewBox="0 0 1280.000000 1242.000000"
 preserveAspectRatio="xMidYMid meet">
<g transform="translate(0.000000,1242.000000) scale(0.100000,-0.100000)"
fill="#000000" stroke="none">
<path d="M5720 12408 c-412 -42 -498 -57 -670 -114 -240 -80 -396 -179 -595
-379 -251 -251 -187 -109 -705 -1566 -247 -694 -453 -1266 -458 -1271 -6 -6
-126 -14 -268 -19 -771 -26 -1250 -66 -1571 -130 -102 -20 -356 -103 -465
-152 -238 -106 -420 -313 -473 -540 -19 -82 -19 -286 0 -426 66 -468 313 -909
765 -1362 213 -213 353 -320 598 -453 385 -210 981 -415 1625 -561 111 -25
227 -51 257 -59 30 -8 100 -22 155 -32 130 -22 142 -27 149 -61 11 -59 59
-753 52 -760 -4 -4 -95 1 -203 11 -108 9 -199 14 -203 9 -4 -4 -93 -269 -196
-587 -104 -319 -196 -588 -204 -597 -8 -10 -753 -389 -1655 -843 -1469 -739
-1640 -828 -1639 -848 1 -29 285 -1662 290 -1667 2 -2 945 1 2096 8 1151 6
3957 14 6236 17 3790 6 4142 8 4142 23 0 24 -102 320 -159 463 -192 482 -414
844 -680 1108 -370 367 -882 622 -1886 939 -126 40 -274 87 -329 104 l-98 32
-404 686 -404 686 39 169 c22 93 71 317 110 499 39 181 77 334 84 341 6 6 32
16 55 23 25 7 63 30 88 53 92 84 147 224 189 481 3 20 11 37 16 37 20 0 776
520 1189 818 1179 851 1628 1312 1633 1678 1 111 -28 171 -135 276 -63 63 -96
86 -171 122 -141 67 -363 152 -499 191 -336 96 -1029 234 -1515 301 -67 9
-126 20 -132 23 -6 4 -105 538 -221 1186 -115 649 -212 1191 -215 1205 -8 37
-167 159 -385 295 -268 168 -557 285 -964 390 -422 109 -1010 201 -1506 234
-91 7 -215 16 -276 21 -130 12 -364 11 -484 -2z"/>
</g>
</svg>
